<?xml version="1.0" encoding="UTF-8" standalone="no"?><!DOCTYPE svg PUBLIC "-//W3C//DTD SVG 1.1//EN" "http://www.w3.org/Graphics/SVG/1.1/DTD/svg11.dtd"><svg width="100%" height="100%" viewBox="0 0 29 29" version="1.1" xmlns="http://www.w3.org/2000/svg" xmlns:xlink="http://www.w3.org/1999/xlink" xml:space="preserve" xmlns:serif="http://www.serif.com/" style="fill-rule:evenodd;clip-rule:evenodd;stroke-linecap:square;stroke-miterlimit:1.5;"><circle cx="14.4" cy="14.4" r="14.16" style="fill:#6f4e37;"/><path d="M7.314,10.322c-0,-0 -1.726,7.177 -1.621,9.025c0.168,2.94 4.797,2.97 4.797,2.97l7.71,-0.008c-0,0 2.663,0.037 3.813,-1.662c0.665,-0.981 0.347,-3.11 0.347,-3.11c-0,-0 1.746,-0.056 2.307,-0.78c1.179,-1.52 0.432,-4.771 -1.477,-4.797c-1.161,-0.016 -1.87,-0.02 -1.87,-0.02l-0.832,-4.34l-12.707,0.01l-1.638,0.793l1.171,1.919Z" style="fill:none;stroke:#fff;stroke-width:2px;"/><path d="M7.799,19.455c-0.492,-0.604 0.863,-5.815 0.863,-5.815l11.041,0.05c0,-0 0.634,2.476 0.84,4.9c0.169,1.995 -2.676,1.812 -2.676,1.812l-6.66,-0.001c-0,0 -2.563,0.093 -3.408,-0.946Z" style="fill:#fff;"/></svg>