<?xml version="1.0" encoding="UTF-8" standalone="no"?><!DOCTYPE svg PUBLIC "-//W3C//DTD SVG 1.1//EN" "http://www.w3.org/Graphics/SVG/1.1/DTD/svg11.dtd"><svg width="100%" height="100%" viewBox="0 0 90 70" version="1.1" xmlns="http://www.w3.org/2000/svg" xmlns:xlink="http://www.w3.org/1999/xlink" xml:space="preserve" xmlns:serif="http://www.serif.com/" style="fill-rule:evenodd;clip-rule:evenodd;stroke-linecap:square;stroke-miterlimit:1.5;"><path d="M11.054,15.561c-0,0 -7.192,29.906 -6.752,37.604c0.699,12.25 19.986,12.376 19.986,12.376l32.123,-0.032c-0,0 11.097,0.152 15.891,-6.925c2.77,-4.09 1.443,-12.96 1.443,-12.96c-0,-0 7.275,-0.233 9.614,-3.249c4.911,-6.333 1.801,-19.879 -6.157,-19.988c-4.837,-0.066 -7.789,-0.083 -7.789,-0.083l-3.466,-18.082l-52.945,0.038l-6.828,3.308l4.88,7.993Z" style="fill:none;stroke:#fff;stroke-width:8.33px;"/><path d="M13.076,53.618c-2.049,-2.52 3.593,-24.23 3.593,-24.23l46.006,0.206c0,0 2.642,10.317 3.5,20.418c0.706,8.313 -11.15,7.548 -11.15,7.548l-27.75,-0c-0,-0 -10.677,0.386 -14.199,-3.942Z" style="fill:#fff;"/></svg>